<?xml version="1.0" standalone="no"?><!DOCTYPE svg PUBLIC "-//W3C//DTD SVG 1.1//EN" "http://www.w3.org/Graphics/SVG/1.1/DTD/svg11.dtd"><svg t="1690625607634" class="icon" viewBox="0 0 1024 1024" version="1.1" xmlns="http://www.w3.org/2000/svg" p-id="11833" xmlns:xlink="http://www.w3.org/1999/xlink" width="200" height="200"><path d="M513.024 65.536q93.184 0 174.592 35.328t141.824 95.744 95.744 142.336 35.328 174.08q0 93.184-35.328 174.592t-95.744 142.336-141.824 96.256-174.592 35.328-174.592-35.328-142.336-96.256-96.256-142.336-35.328-174.592q0-92.16 35.328-174.08t96.256-142.336 142.336-95.744 174.592-35.328zM274.432 373.76q0 35.84 19.968 60.416t48.64 24.576q29.696 0 49.664-24.576t19.968-60.416q0-34.816-19.968-59.392t-49.664-24.576q-28.672 0-48.64 24.576t-19.968 59.392zM638.976 705.536l-256 0 0 63.488 256 0 0-63.488zM674.816 456.704q29.696 0 50.688-24.576t20.992-59.392q0-35.84-20.992-60.416t-50.688-24.576-50.176 24.576-20.48 60.416q0 34.816 20.48 59.392t50.176 24.576z" p-id="11834" fill="#45a049"></path></svg>