<?xml version="1.0" standalone="no"?><!DOCTYPE svg PUBLIC "-//W3C//DTD SVG 1.1//EN" "http://www.w3.org/Graphics/SVG/1.1/DTD/svg11.dtd"><svg t="1690718624682" class="icon" viewBox="0 0 1024 1024" version="1.1" xmlns="http://www.w3.org/2000/svg" p-id="7803" xmlns:xlink="http://www.w3.org/1999/xlink" width="200" height="200"><path d="M581.1 738.3c-4.6 0-9.3-0.4-14-1.1-33.2-5.3-60-28.5-70-60.6l-35.1-113-113-35.1c-32.1-10-55.3-36.8-60.6-70-5.3-33.2 8.5-65.9 36-85.3l97.6-69-2.5-117.7c-0.4-33.6 17.9-64 47.9-79.3s65.3-12.3 92.3 7.8l95.8 71.5 111.2-38.7c31.8-10.8 66.4-2.7 90.2 21 23.8 23.8 31.9 58.3 21.1 90.2l-38.4 113.2 71.1 93.8c20.1 27 23.1 62.3 7.9 92.3-15.1 29.6-44.9 47.9-78.1 47.9h-1.2l-119.5-1.5-67.2 96.6c-16.9 23.5-43.4 37-71.5 37z m1.8-88.4h0.2-0.2z m-203.1-206l109.9 34.2c27.6 8.6 49.1 30.1 57.7 57.7l34.2 109.9 66.4-94c16.6-23.6 43.3-37.1 72.7-37.1l115.1 1.5-68.8-92.2c-17.3-23.1-22-53.3-12.8-80.6l36.9-109-109 36.9c-27.4 9.3-57.5 4.5-80.6-12.8l-92.2-68.8 1.5 115.1c0.4 28.9-13.5 56-37.1 72.7l-93.9 66.5z" fill="#13227a" p-id="7804"></path><path d="M203.8 928.9c-27.5 0-54.9-10.4-75.8-31.4-41.8-41.8-41.8-109.9 0-151.7l267.6-267.6c17.5-17.6 46-17.6 63.6 0 17.6 17.5 17.6 46 0 63.6L191.5 809.4c-6.8 6.8-6.8 17.8 0 24.6 6.8 6.8 17.8 6.7 24.6 0L486 564.1c17.5-17.6 46-17.6 63.6 0 17.6 17.5 17.6 46 0 63.6l-270 269.9c-20.9 20.9-48.4 31.3-75.8 31.3z" fill="#13227a" p-id="7805"></path></svg>