<?xml version="1.0" standalone="no"?><!DOCTYPE svg PUBLIC "-//W3C//DTD SVG 1.1//EN" "http://www.w3.org/Graphics/SVG/1.1/DTD/svg11.dtd"><svg t="1690424730092" class="icon" viewBox="0 0 4220 1024" version="1.1" xmlns="http://www.w3.org/2000/svg" p-id="23465" xmlns:xlink="http://www.w3.org/1999/xlink" width="824.21875" height="200"><path d="M3249.722604 229.409369h-232.537679c-15.641548 0-29.197556 11.470468-32.325865 27.112016l-93.849287 595.421589c-2.08554 11.470468 7.299389 21.898167 18.769857 21.898167h118.875764c11.470468 0 20.855397-8.342159 21.898167-18.769858l27.112016-168.928717c2.08554-15.641548 15.641548-27.112016 32.325866-27.112016h72.99389c153.287169 0 240.879837-74.03666 263.820774-221.06721 10.427699-63.608961 0-114.704684-29.197556-150.158859-31.283096-38.582485-89.678208-58.395112-167.885947-58.395112z m27.112016 216.89613c-12.513238 83.421589-76.1222 83.421589-137.645621 83.421589h-35.454175l25.026476-155.372709c1.04277-9.384929 9.384929-16.684318 18.769858-16.684318h15.641547c41.710794 0 81.336049 0 102.191447 23.983707 12.513238 14.598778 15.641548 35.454175 11.470468 64.651731z" fill="#009CDE" p-id="23466"></path><path d="M1594.84684 229.409369h-232.537678c-15.641548 0-29.197556 11.470468-32.325866 27.112016l-93.849287 595.421589c-2.08554 11.470468 7.299389 21.898167 18.769857 21.898167h110.533605c15.641548 0 29.197556-11.470468 32.325866-27.112017l25.026476-160.586558c2.08554-15.641548 15.641548-27.112016 32.325866-27.112016h72.99389c153.287169 0 240.879837-74.03666 263.820774-221.06721 10.427699-63.608961 0-114.704684-29.197556-150.158859-31.283096-38.582485-89.678208-58.395112-167.885947-58.395112z m27.112016 216.89613c-12.513238 83.421589-76.1222 83.421589-137.645621 83.421589h-35.454175l25.026476-155.372709c1.04277-9.384929 9.384929-16.684318 18.769858-16.684318h15.641548c41.710794 0 81.336049 0 102.191446 23.983707 12.513238 14.598778 15.641548 35.454175 11.470468 64.651731zM2288.288795 443.177189h-111.576375c-9.384929 0-17.727088 7.299389-18.769857 16.684318l-5.213849 31.283096-7.299389-11.470469c-23.983707-34.411405-77.164969-46.924644-131.389002-46.924643-123.046843 0-227.323829 92.806517-248.179226 223.152749-10.427699 64.651731 4.171079 127.217923 41.710794 171.014257 34.411405 39.625255 82.378819 56.309572 139.731161 56.309572 99.063136 0 153.287169-63.608961 153.287169-63.608961l-5.21385 31.283096c-2.08554 11.470468 7.299389 21.898167 18.769858 21.898167h100.105906c15.641548 0 29.197556-11.470468 32.325866-27.112017l60.480652-380.610998c2.08554-10.427699-6.256619-21.898167-18.769858-21.898167z m-154.329939 216.896131c-10.427699 63.608961-61.523422 106.362525-125.132383 106.362525-32.325866 0-58.395112-10.427699-75.079429-30.240326-16.684318-19.812627-22.940937-46.924644-17.727088-78.207739 10.427699-62.566191 61.523422-107.405295 124.089613-107.405295 31.283096 0 57.352342 10.427699 74.03666 30.240326 17.727088 20.855397 25.026477 47.967413 19.812627 79.250509z" fill="#003087" p-id="23467"></path><path d="M3943.164559 443.177189h-111.576375c-9.384929 0-17.727088 7.299389-18.769857 16.684318l-5.21385 31.283096-7.299389-11.470469c-23.983707-34.411405-77.164969-46.924644-131.389002-46.924643-123.046843 0-227.323829 92.806517-248.179226 223.152749-10.427699 64.651731 4.171079 127.217923 41.710795 171.014257 34.411405 39.625255 82.378819 56.309572 139.73116 56.309572 99.063136 0 153.287169-63.608961 153.28717-63.608961l-5.21385 31.283096c-2.08554 11.470468 7.299389 21.898167 18.769858 21.898167h100.105906c15.641548 0 29.197556-11.470468 32.325866-27.112017l60.480651-380.610998c2.08554-10.427699-6.256619-21.898167-18.769857-21.898167z m-154.329939 216.896131c-10.427699 63.608961-61.523422 106.362525-125.132383 106.362525-32.325866 0-58.395112-10.427699-75.07943-30.240326-16.684318-19.812627-22.940937-46.924644-17.727087-78.207739 10.427699-62.566191 61.523422-107.405295 124.089613-107.405295 31.283096 0 57.352342 10.427699 74.03666 30.240326 17.727088 20.855397 25.026477 47.967413 19.812627 79.250509z" fill="#009CDE" p-id="23468"></path><path d="M2880.582074 443.177189h-111.576375c-10.427699 0-20.855397 5.213849-27.112016 14.598778l-154.329939 227.323829-65.694501-217.9389c-4.171079-13.556008-16.684318-22.940937-31.283096-22.940937h-109.490835c-13.556008 0-22.940937 13.556008-18.769857 26.069247l123.046843 360.79837-115.747454 162.672098c-9.384929 12.513238 0 30.240326 15.641548 30.240326h111.576375c10.427699 0 20.855397-5.213849 26.069246-13.556008l371.226069-535.983707c11.470468-13.556008 2.08554-31.283096-13.556008-31.283096z" fill="#003087" p-id="23469"></path><path d="M4074.553561 245.050916l-94.892057 605.849288c-2.08554 11.470468 7.299389 21.898167 18.769857 21.898167h95.934827c15.641548 0 29.197556-11.470468 32.325866-27.112017l93.849287-595.421588c2.08554-11.470468-7.299389-21.898167-18.769857-21.898167h-107.405296c-10.427699 1.04277-18.769857 7.299389-19.812627 16.684317z" fill="#009CDE" p-id="23470"></path><path d="M782.529121 259.649695c12.513238-79.250509 0-133.474542-42.753564-182.484726C691.808143 22.940937 606.301015 0 496.81018 0H178.765374c-21.898167 0-41.710794 16.684318-44.839104 38.582485L0.451728 879.05499c-3.12831 16.684318 10.427699 31.283096 27.112016 31.283096h196.040733l-13.556008 85.507128c-2.08554 14.598778 9.384929 27.112016 23.983707 27.112016h165.800407c19.812627 0 36.496945-14.598778 39.625255-33.368635l2.08554-8.342159 31.283095-198.126273 2.08554-10.427699c3.12831-19.812627 19.812627-33.368635 39.625255-33.368635h25.026476c160.586558 0 285.718941-64.651731 322.215886-253.393075 15.641548-79.250509 7.299389-144.94501-33.368635-190.826884-12.513238-13.556008-28.154786-26.069246-45.881874-35.454175" fill="#009CDE" p-id="23471"></path><path d="M782.529121 259.649695c12.513238-79.250509 0-133.474542-42.753564-182.484726C691.808143 22.940937 606.301015 0 496.81018 0H178.765374c-21.898167 0-41.710794 16.684318-44.839104 38.582485L0.451728 879.05499c-3.12831 16.684318 10.427699 31.283096 27.112016 31.283096h196.040733l49.010184-312.830958-1.04277 9.384929c3.12831-21.898167 21.898167-38.582485 44.839104-38.582485h93.849287c183.527495 0 327.429735-74.03666 369.140529-289.89002l3.12831-18.769857" fill="#012169" p-id="23472"></path><path d="M326.838693 260.692464c2.08554-13.556008 10.427699-23.983707 21.898167-30.240326 5.213849-2.08554 11.470468-4.171079 16.684318-4.171079h250.264766c29.197556 0 57.352342 2.08554 82.378819 6.256619 7.299389 1.04277 14.598778 2.08554 20.855397 4.17108 7.299389 1.04277 13.556008 3.12831 19.812627 5.213849l9.384929 3.128309c12.513238 4.171079 23.983707 9.384929 34.411405 14.598779 12.513238-79.250509 0-133.474542-42.753564-182.484726C691.808143 22.940937 606.301015 0 496.81018 0H178.765374c-21.898167 0-41.710794 16.684318-44.839104 38.582485L0.451728 879.05499c-3.12831 16.684318 10.427699 31.283096 27.112016 31.283096h196.040733l49.010184-312.830958L326.838693 260.692464z" fill="#003087" p-id="23473"></path></svg>