<?xml version="1.0" standalone="no"?><!DOCTYPE svg PUBLIC "-//W3C//DTD SVG 1.1//EN" "http://www.w3.org/Graphics/SVG/1.1/DTD/svg11.dtd"><svg t="1690435310498" class="icon" viewBox="0 0 1024 1024" version="1.1" xmlns="http://www.w3.org/2000/svg" p-id="7251" xmlns:xlink="http://www.w3.org/1999/xlink" width="200" height="200"><path d="M593.949942 770.425747c2.908236-4.233418 4.614088-9.380648 4.614088-14.892175s-1.705851-10.658757-4.614088-14.922874L431.084621 577.00041c-10.32209-10.324136-10.32209-27.042913 0-37.381375l158.601204-159.117974c5.376451-4.843308 8.771781-11.818163 8.771781-19.61371 0-14.602579-11.83249-26.433022-26.434046-26.433022-5.953595 0-11.420097 1.979074-15.835663 5.298679l-5.300726 5.299703L375.020744 520.936533c-20.650319 20.647249-20.650319 54.114478 0 74.763774l177.556928 177.590698 1.811252 1.794879c4.690836 4.264117 10.903328 6.884804 17.740036 6.884804C581.18829 781.968641 589.183382 777.399579 593.949942 770.425747z" fill="#2c2c2c" p-id="7252"></path></svg>