<?xml version="1.0" standalone="no"?><!DOCTYPE svg PUBLIC "-//W3C//DTD SVG 1.1//EN" "http://www.w3.org/Graphics/SVG/1.1/DTD/svg11.dtd"><svg t="1690623117711" class="icon" viewBox="0 0 1024 1024" version="1.1" xmlns="http://www.w3.org/2000/svg" p-id="3240" xmlns:xlink="http://www.w3.org/1999/xlink" width="200" height="200"><path d="M984.17152 35.06688c-6.66112-6.03136-16.43008-7.98208-25.05216-4.89472L92.47232 346.91584c-31.34464 12.53376-53.51424 39.85408-59.31008 73.08288-5.7856 33.20832 6.00064 66.57536 31.66208 89.36448l220.11904 182.44096a9.45152 9.45152 0 0 0-0.1024 0.91648l-13.63456 276.68992a24.86272 24.86272 0 0 0 14.69952 23.80288 25.0368 25.0368 0 0 0 9.95328 2.09408c6.5024 0 12.85632-2.64704 17.4336-7.24992l119.9104-119.88992c9.60512-9.63072 9.60512-25.27232-0.00512-34.85696a24.5248 24.5248 0 0 0-17.44896-7.23968 24.45824 24.45824 0 0 0-17.4336 7.23968l-74.6752 74.65472 8.73984-176.8192 281.98912 233.70752a96.256 96.256 0 0 0 63.96416 24.42752c42.0864 0 79.21664-27.33056 92.48256-68.30592l220.71808-861.51168a24.6272 24.6272 0 0 0-7.36256-24.3968z m-114.45248 80.32768L315.83744 653.35808 96.9472 471.92576a46.93504 46.93504 0 0 1-15.18592-43.4176c2.86208-16.26112 13.5168-29.55264 28.35456-35.5072l759.6032-277.6064z m51.86048 18.4064l-198.13376 773.44768c-7.27552 22.58944-27.90912 32.70656-45.1328 32.70656-8.08448 0-20.15232-2.15552-31.85664-12.52864l-292.39296-242.40128L921.57952 133.80096z" p-id="3241" fill="#45a049" data-spm-anchor-id="a313x.7781069.0.i1" class="selected"></path></svg>